# xmcd
#
# Track frame offsets:
#	150
#	18735
#	32809
#	44540
#	60414
#	72929
#	86042
#	99513
#	112464
#	126420
#	141950
#	157948
#	174464
#	188061
#	201984
#	225414
#	239446
#	250700
#
# Disc length: 3551 seconds
#
# Revision: 0
# Processed by: cddbd v1.4PL0 Copyright (c) Steve Scherf et al.
# Submitted via: dBpowerAMP V4.0
#
DISCID=020ddd12
DTITLE=John McSweeny - The Great [CD2]
DYEAR=2002
DGENRE=Country
TTITLE0=Paper Rose
TTITLE1=Lord I Hope This Day Is Good
TTITLE2=No One Will Ever Know
TTITLE3=Mamma's Waiting
TTITLE4=Everything's A Waltz
TTITLE5=Another You
TTITLE6=He's Taking My Place
TTITLE7=Crying My Heart Out Over You
TTITLE8=No Relief In Sight
TTITLE9=I'm Sittin' Fancy Free
TTITLE10=Forget Me Nots
TTITLE11=Woman Of The Outback
TTITLE12=Love Is The Answer
TTITLE13=A Long Line Of Love
TTITLE14=Pretty Woman
TTITLE15=Let's Turn Back The Hands On The Clock
TTITLE16=Tonight We're Gonna Tear Down The Wall
TTITLE17=Dark Side Of Town
EXTD=
EXTT0=
EXTT1=
EXTT2=
EXTT3=
EXTT4=
EXTT5=
EXTT6=
EXTT7=
EXTT8=
EXTT9=
EXTT10=
EXTT11=
EXTT12=
EXTT13=
EXTT14=
EXTT15=
EXTT16=
EXTT17=
PLAYORDER=
